<svg xmlns="http://www.w3.org/2000/svg" version="1.1" xmlns:xlink="http://www.w3.org/1999/xlink" xmlns:svgjs="http://svgjs.dev/svgjs" viewBox="0 0 9.737621029878213 9.72482667191465"><g transform="matrix(1,0,0,1,2.746651425941669,2.9199626012476028)"><rect width="9.737621029878213" height="9.737621029878213" x="-2.7466514259416694" y="-2.9263597802293844" fill="#1c3423"></rect><g><path d=" M 1.2544029487364554 -1.4781829177627892 Q 1.2610488896791305 -1.475384441572704 1.2949245319775344 -1.4686434580487226 Q 1.3288001742759383 -1.461902474524741 1.3710307640433395 -1.4700004550073975 Q 1.4014760729454192 -1.4758385339600104 1.4181586871433896 -1.4897288321397355 Q 1.43484130134136 -1.5036191303194608 1.4400281625546592 -1.5270145672838342 Q 1.4452150237679584 -1.5504100042482076 1.4419668553272977 -1.5859339314210457 Q 1.4387186868866373 -1.6214578585938837 1.4291141053839518 -1.6715453022714988 L 1.361128734355138 -2.026085834969912 L 1.5526395484166076 -2.0628092348331215 L 1.6206249194454214 -1.7082687021347085 Q 1.6358792547732162 -1.6287180562937902 1.638978699170077 -1.5621099228232391 Q 1.642078143566938 -1.4955017893526878 1.6226366542625863 -1.4428992371937974 Q 1.6031951649582348 -1.390296685034907 1.5510352648605252 -1.3543301058008885 Q 1.4988753647628155 -1.3183635265668698 1.403611011101469 -1.3000959891990167 Q 1.3584341011177377 -1.2914330333338493 1.3190424686416804 -1.2950798526152554 Q 1.2796508361656234 -1.2987266718966617 1.2440802677196867 -1.314306616069634 L 1.2544029487364554 -1.4781829177627892 M 1.8101246652439633 -1.3830853590354217 L 1.7974191546636131 -2.0929716668347007 L 2.103370154926401 -2.0984475629439783 Q 2.155361828173672 -2.099378107380849 2.199730579251638 -2.0791688538621877 Q 2.2440993303296035 -2.0589596003435267 2.2767294817030956 -2.0240379276839446 Q 2.3093596330765873 -1.9891162550243626 2.32764421455831 -1.945436464731388 Q 2.345928796040032 -1.901756674438413 2.346734074879632 -1.8567638802821207 Q 2.3478614652550713 -1.7937739684633114 2.3193683138641146 -1.73725503071841 Q 2.2908751624731583 -1.6807360929735087 2.2390188448198347 -1.6443022856040117 Q 2.187162527166511 -1.607868478234515 2.117173736256723 -1.6066158222618043 L 2.001192311320503 -1.6045399923641697 L 2.00509343992123 -1.386574900673687 L 1.8101246652439633 -1.3830853590354217 M 1.9981501468153486 -1.7745127702879406 L 2.101133653439751 -1.7763559640763578 Q 2.113131731881429 -1.776570705100251 2.124004704855696 -1.7837664301297986 Q 2.134877677829963 -1.7909621551593462 2.1420722604054965 -1.8080936460916566 Q 2.1492668429810298 -1.825225137023967 2.1487657805919453 -1.853220653387882 Q 2.1482289280322124 -1.883215849492077 2.1394350202281704 -1.8995610991241265 Q 2.130641112424129 -1.915906348756176 2.118026795992772 -1.9221816193455294 Q 2.1054124795614153 -1.9284568899348828 2.0934144011197375 -1.9282421489109896 L 1.995430093846034 -1.9264884305491947 L 1.9981501468153486 -1.7745127702879406 M 2.9491978711634257 -1.7791106506214311 Q 2.9491978711634257 -1.7791106506214311 2.934154639372231 -1.791866087786672 Q 2.9191114075810365 -1.8046215249519122 2.8936564607554285 -1.8217181819966526 Q 2.8682015139298205 -1.8388148390413928 2.8373931690444274 -1.8543017976008602 Q 2.8065848241590343 -1.869788756160328 2.7750545979706365 -1.875251798948782 Q 2.7504216087609508 -1.8795198011272618 2.7332907349696383 -1.8743687659743893 Q 2.716159861178326 -1.869217730821517 2.7129161795226815 -1.8504966590221559 Q 2.709843217954176 -1.832760906791182 2.7237304100898436 -1.8191908701446935 Q 2.7376176022255114 -1.8056208334982047 2.7651480487086877 -1.7917167148121118 Q 2.792678495191864 -1.7778125961260187 2.8308572363629394 -1.7580039181642753 Q 2.8924739261337256 -1.72703000104534 2.9353305431507035 -1.6932171280845858 Q 2.978187160167681 -1.6594042551238315 2.9968913054166166 -1.6150600903385217 Q 3.0155954506655527 -1.570715925553212 3.004157204827227 -1.5046995144712543 Q 2.9932311192503187 -1.4416390620944588 2.963142445386853 -1.4027042228738071 Q 2.9330537715233875 -1.3637693836531555 2.8901875860906587 -1.3448091582735107 Q 2.84732140065793 -1.325848932893866 2.7980627803732325 -1.3227123220400918 Q 2.7488041600885356 -1.3195757111863176 2.699538181669164 -1.3281117155432771 Q 2.6492868836814054 -1.336818439987376 2.5963942085508647 -1.356639260291669 Q 2.543501533420324 -1.3764600805959621 2.4954232374762526 -1.4035659371423674 Q 2.4473449415321813 -1.4306717936887727 2.409244202270002 -1.4626457466454437 L 2.521204180915347 -1.6167949055200017 Q 2.521204180915347 -1.6167949055200017 2.5388619312374257 -1.6015566689565688 Q 2.5565196815595037 -1.5863184323931359 2.586474426009201 -1.5659048759917311 Q 2.6164291704588982 -1.5454913195903264 2.654285971932919 -1.52675332124054 Q 2.6921427734069394 -1.5080153228907536 2.732540875710824 -1.5010157993180469 Q 2.764071101899222 -1.4955527565295927 2.7778387172447476 -1.501793971771646 Q 2.791606332590274 -1.5080351870136992 2.7939964138102225 -1.5218296609711233 Q 2.7975815356401452 -1.5425213719072592 2.7778677861377226 -1.5576083888607768 Q 2.7581540366353 -1.5726954058142946 2.724967752872508 -1.5891018243758037 Q 2.6917814691097153 -1.605508242937313 2.6518028088890047 -1.6266436806417222 Q 2.5942981174789073 -1.657920036980488 2.5594094170525987 -1.6908598090283227 Q 2.52452071662629 -1.723799581076157 2.5120309280075093 -1.7630074269779428 Q 2.499541139388729 -1.8022152728797285 2.508418583919967 -1.8534518904358748 Q 2.5219054708039628 -1.9312921363384816 2.5674104594526748 -1.9771974302388653 Q 2.6129154481013868 -2.0231027241392487 2.677222084385154 -2.0398704469979823 Q 2.741528720668921 -2.0566381698567153 2.8105010904560412 -2.044687763756972 Q 2.8617377080121873 -2.035810319225734 2.9073917059897374 -2.0152139003946403 Q 2.953045703967288 -1.9946174815635467 2.991848824055248 -1.9696261256291574 Q 3.0306519441432087 -1.9446347696947681 3.0594506489373794 -1.923406613812115 L 2.9491978711634257 -1.7791106506214311" fill="#ffffff" fill-rule="nonzero"></path></g><g><path d=" M -0.028491532407771247 -0.6158707127712306 L -0.46008461897175235 -0.7319543362078544 L -0.3655395616736734 -0.2940716668311105 L -0.4205087681633914 -0.24158941899538267 L -0.5295949622431564 -0.7540747380643213 L -0.7119017178830527 -0.9450204027128153 L -0.6612721855898915 -0.9933593151930908 L -0.47758431816484437 -0.8009670924790779 L 0.027200953114706106 -0.6690435164995338 L -0.028491532407771247 -0.6158707127712306 M -1.2142515705013437 -0.3533413805859253 Q -1.1717925171117214 -0.4151655569674769 -1.1125294831355412 -0.44846559906862327 Q -1.053266449159361 -0.48176564116976967 -0.9859045367221173 -0.4888806079860726 Q -0.9185426242848735 -0.49599557480237555 -0.85178693551206 -0.4792645253293969 Q -0.7850312467392464 -0.4625334758564182 -0.7289773268199731 -0.4240372674498273 Q -0.6704504398454375 -0.3838426969076515 -0.6314346659538439 -0.32671985219872574 Q -0.5924188920622503 -0.26959700748980003 -0.5765491056883765 -0.20350124453597973 Q -0.5606793193145025 -0.13740548158215937 -0.5708951733613183 -0.07042125712524605 Q -0.5811110274081343 -0.003437032668332618 -0.62130559795031 0.055089854306202946 Q -0.6637646513399323 0.11691403068775452 -0.7238520076678665 0.1496479520770393 Q -0.7839393639958007 0.18238187346632406 -0.8514303772529908 0.18880161875081902 Q -0.9189213905101807 0.1952213640353142 -0.9852649181071172 0.1787733749182664 Q -1.0516084457040538 0.16232538580121858 -1.1068380432715732 0.1243952981064893 Q -1.1653649302461087 0.08420072756431352 -1.2043807041377024 0.027077882855387703 Q -1.2433964780292959 -0.030044961853538 -1.2595493247591005 -0.0957285636314813 Q -1.2757021714889052 -0.16141216540942466 -1.2650741562662124 -0.22811332951040725 Q -1.2544461410435195 -0.2948144936113898 -1.2142515705013437 -0.3533413805859253 M -0.7686057766502872 -0.3663347028270458 Q -0.8164164730520204 -0.3991697041150204 -0.8712740123962315 -0.4137950375162912 Q -0.9261315517404427 -0.4284203709175621 -0.9801551542533916 -0.423063098148429 Q -1.0341787567663405 -0.41770582537929596 -1.0818315089096031 -0.3915961487598359 Q -1.1294842610528657 -0.3654864721403758 -1.1623192623408403 -0.3176757757386426 Q -1.1968526257643999 -0.2673921122816473 -1.2032892603199614 -0.21297640006910568 Q -1.209725894875523 -0.15856068785656408 -1.1942233594852034 -0.106061436466931 Q -1.1787208240948837 -0.05356218507729793 -1.14522191226543 -0.008719985017059062 Q -1.1117230004359762 0.036122215043179695 -1.066385271089505 0.06725885419556932 Q -1.0185745746877717 0.10009385548354388 -0.9641291965194376 0.11443612852888396 Q -0.9096838183511036 0.12877840157422404 -0.8549649943063468 0.12329202798514483 Q -0.80024617026159 0.1178056543960655 -0.7532886396501352 0.09182507859655165 Q -0.7063311090386803 0.0658445027970378 -0.6734961077507058 0.018033806395304497 Q -0.6395288650390079 -0.03142553470993681 -0.6326800693075694 -0.08555818656654757 Q -0.6258312735761308 -0.13969083842315833 -0.6413338089664504 -0.1921900898127914 Q -0.6568363443567701 -0.24468934120242447 -0.690052195830293 -0.2899437024385403 Q -0.723268047303816 -0.3351980636746561 -0.7686057766502872 -0.3663347028270458 M -1.648185180663492 0.4659822952263758 Q -1.6176262828732029 0.3877381020498681 -1.568581736835917 0.3446262416864304 Q -1.5195371907986313 0.3015143813229927 -1.460128449366685 0.2882158309707111 Q -1.4007197079347389 0.27491728061842946 -1.3354662403270487 0.2837623337653657 Q -1.2702127727193586 0.2926073869123019 -1.2068722353859953 0.3173455422663456 L -0.8734029358956409 0.44758465427734034 L -0.8985048876519499 0.5118566701009002 L -1.2319741871423042 0.3816175580899055 Q -1.2832055041031127 0.3616087559653114 -1.3367575227095798 0.3530395492825079 Q -1.390309541316047 0.3444703425997044 -1.4388903443632 0.35340933444966927 Q -1.4874711474103528 0.3623483262996342 -1.526299412119843 0.39442036801278 Q -1.565127676829333 0.4264924097259259 -1.589138239378846 0.4879699900788962 Q -1.6138763947328896 0.5513105274122596 -1.6063126331336863 0.6020381284837711 Q -1.598748871534483 0.6527657295552827 -1.5689035832039957 0.6917978799504386 Q -1.539058294873508 0.7308300303455945 -1.4941574345631097 0.7601756048566869 Q -1.4492565742527113 0.7895211793677794 -1.3989567357820991 0.8091661850901083 L -1.0654874362917448 0.939405297101103 L -1.0909531844503193 1.0046087914148596 L -1.4244224839406736 0.8743696794038648 Q -1.4905574567446265 0.848540134843025 -1.5452828161711547 0.809989712852633 Q -1.600008175597683 0.7714392908622411 -1.6327358493368926 0.7205457807492626 Q -1.6654635230761021 0.669652270636284 -1.6717400043626764 0.6060079010293873 Q -1.6780164856492505 0.5423635314224904 -1.648185180663492 0.4659822952263758 M -1.8328283147058089 1.0684243336271366 L -1.1316295260248568 1.1798705482437202 L -1.1787194758628496 1.4761517265596154 Q -1.1859399348380086 1.5215815072347194 -1.210669136444161 1.5561280929983266 Q -1.2353983380503135 1.5906746787619337 -1.2719690109358115 1.6137199794694945 Q -1.3085396838213095 1.6367652801770554 -1.3499830197078655 1.6458729643280408 Q -1.3914263555944213 1.6549806484790262 -1.431918116630927 1.648545022001167 Q -1.4822859169446292 1.6405397305287084 -1.5236672469525439 1.6142179614624763 Q -1.5650485769604585 1.587896192396244 -1.5900919879889386 1.5479702914789373 Q -1.6151353990174186 1.5080443905616303 -1.6174770463205361 1.4590697370364873 L -1.9153926934217564 1.587903999607673 L -1.9029923399644184 1.5098832893178207 L -1.6180267054920536 1.3860786562471528 L -1.5850637406054586 1.1786818314260261 L -1.8438159696680072 1.1375566085675122 L -1.8328283147058089 1.0684243336271366 M -1.5238322970868403 1.1884137543925446 L -1.5602485249615548 1.4175378656235036 Q -1.566841117938874 1.459017230587729 -1.5489921890845813 1.4932431818346177 Q -1.5311432602302886 1.5274691330815062 -1.4967765434316211 1.5501446435824895 Q -1.462409826632954 1.5728201540834728 -1.4209304616687286 1.5794127470607915 Q -1.3784634927767836 1.5861623065375707 -1.3393551026755468 1.5726333071773266 Q -1.30024671257431 1.5591043078170825 -1.2729242129681686 1.5305389264040432 Q -1.2456017133620272 1.5019735449910043 -1.2393230533836281 1.4624693878822181 L -1.2038486245056734 1.2392709002175772 L -1.5238322970868403 1.1884137543925446 M -1.2225043330332646 2.5833893019692264 L -1.2493409642626876 2.331816657939205 L -1.8936851276281184 2.400552377451719 L -1.9011102825137294 2.3309472980758237 L -1.2567661191482986 2.2622115785633095 L -1.2836027503777219 2.010638934533288 L -1.2219525372162146 2.004062368777461 L -1.1608541198717572 2.5768127362133995 L -1.2225043330332646 2.5833893019692264 M -1.6146436591148459 3.333806535922699 L -1.6740464158868862 3.351563576438557 L -1.810661066307275 2.8945455928859234 L -1.1304036903693933 2.6911988385914243 L -0.9963666748625966 3.1395938413223097 L -1.055769431634637 3.1573508818381675 L -1.1697581755912718 2.776023507720876 L -1.4150340745209868 2.849342900818611 L -1.3156519284080415 3.181806716945998 L -1.3721803582394991 3.1987045458239916 L -1.4715625043524447 2.8662407296966044 L -1.7312100379850728 2.94385618098366 L -1.6146436591148459 3.333806535922699 M -1.2744978667110316 3.390393827789809 Q -1.2170272148643242 3.360027330192711 -1.1512554927665717 3.3507224619885925 Q -1.0854837706688194 3.341417593784474 -1.01986072502604 3.355377030756133 Q -0.9542376793832611 3.3693364677277926 -0.8978385373841572 3.4107898967990398 Q -0.8414393953850534 3.452243325870287 -0.8040652444963173 3.522976435835465 Q -0.7596834403159431 3.606972003919114 -0.7666101290471378 3.6869752599979835 Q -0.7735368177783322 3.7669785160768527 -0.8187103008932393 3.82703978831835 L -0.8744666013644461 3.7942947893450025 Q -0.8436559676404156 3.7520017065828815 -0.8356926521037076 3.7082086066051128 Q -0.8277293365669995 3.6644155066273445 -0.8355728570735363 3.6238849109487274 Q -0.843416377580073 3.5833543152701104 -0.8616362761383319 3.5488719241620856 Q -0.8915355968493208 3.492285436189943 -0.9369734430700721 3.4608744169320564 Q -0.9824112892908236 3.4294633976741693 -1.0356386796444828 3.419698925535892 Q -1.0888660699981418 3.409934453397615 -1.1432266804766464 3.4194304540507474 Q -1.197587290955151 3.42892645470388 -1.2453321401816462 3.454154006553777 Q -1.2974978087809652 3.4817174428342197 -1.3358991202852764 3.524628272175411 Q -1.3743004317895877 3.5675391015166027 -1.3941748646840926 3.6187568417744647 Q -1.4140492975785977 3.6699745820323266 -1.413053233529137 3.724302363658391 Q -1.4120571694796766 3.778630145284456 -1.3854280869714521 3.8290274861346454 Q -1.3667410115270842 3.8643940411172344 -1.3347412880665916 3.894988447443424 Q -1.302741564606099 3.925582853769614 -1.260048855900736 3.9443067054940597 Q -1.217356147195373 3.9630305572185054 -1.1664067174709931 3.960992025697906 L -1.1658353743136014 4.026288837005937 Q -1.2229739511599345 4.0315976067293 -1.2771781512798523 4.008211613285363 Q -1.3313823513997707 3.984825619841426 -1.3745769590816703 3.943746721764594 Q -1.41777156676357 3.9026678236877617 -1.442999118613467 3.854922974461266 Q -1.4771030312994387 3.7903790116180414 -1.4777496593033108 3.721728943357153 Q -1.4783962873071832 3.6530788750962646 -1.4527670553243945 3.5892067961574012 Q -1.4271378233416059 3.525334717218538 -1.380437334824237 3.473514698188832 Q -1.3337368463068682 3.421694679159126 -1.2744978667110316 3.390393827789809 M -0.23907126569297366 4.304354354766485 L -0.7806370700335847 4.763491022403591 L -0.8252573940715571 4.710859979446546 L -0.5720181728869334 4.496165086973984 L -0.8442668166548515 4.175039448062156 L -1.0975060378394752 4.389734340534719 L -1.1427730332403168 4.336340528839166 L -0.6012072288997057 3.877203861202059 L -0.5559402334988642 3.9305976728976124 L -0.7969751548673616 4.134945823564268 L -0.5247265110994433 4.456071462476095 L -0.283691589730946 4.25172331180944 L -0.23907126569297366 4.304354354766485 M -0.03254580836586174 5.362149664774799 Q -0.09605013193826328 5.322247272771165 -0.13173935830902933 5.264391597845915 Q -0.1674285846797954 5.206535922920664 -0.1772848119997752 5.139520217425483 Q -0.18714103931975495 5.072504511930301 -0.17314636573979764 5.005122028216873 Q -0.15915169215984032 4.937739544503445 -0.12297352340987822 4.880162291131134 Q -0.08519925897977076 4.8200448648159275 -0.029715093999177822 4.778731943878207 Q 0.025769070981415176 4.737419022940486 0.09116263789778611 4.718866896217275 Q 0.1565562048141571 4.700314769494062 0.2239013288411399 4.70779034771854 Q 0.2912464528681228 4.715265925943019 0.35136387918332956 4.7530401903731265 Q 0.4148682027557311 4.792942582376761 0.4500253972331154 4.851644981616309 Q 0.4851825917104997 4.910347380855859 0.4943494409266391 4.977520432561499 Q 0.5035162901427788 5.044693484267138 0.4897876325095123 5.1116526058234175 Q 0.4760589748762458 5.178611727379696 0.4404128380196656 5.235342256437709 Q 0.4026385735895581 5.295459682752915 0.3471544086089652 5.336772603690636 Q 0.29167024362837213 5.378085524628356 0.22670003886915058 5.396903667298259 Q 0.16172983410992903 5.415721809968161 0.09465072602963698 5.407822869586535 Q 0.02757161794934504 5.399923929204907 -0.03254580836586174 5.362149664774799 M -0.0637028214089701 4.91740452366786 Q -0.09456067122511425 4.9665145338971834 -0.10693661554936526 5.021922890686417 Q -0.11931255987361628 5.077331247475652 -0.11175653244850672 5.13109142278741 Q -0.1042005050233972 5.184851598099168 -0.07616915716776484 5.231399890628503 Q -0.04813780931213252 5.277948183157838 0.000972200917191357 5.308806032973982 Q 0.05262238408941128 5.341259978470272 0.10725532661413334 5.345472055284672 Q 0.16188826913885546 5.349684132099073 0.21371161345088652 5.33205344906305 Q 0.2655349577629176 5.314422766027028 0.308973685769529 5.27912295145007 Q 0.3524124137761405 5.243823136873112 0.38167416791213926 5.197253299586684 Q 0.4125320177282834 5.14814328935736 0.4246419461058435 5.093158294725276 Q 0.4367518744834036 5.038173300093192 0.4290385008478357 4.983723746677592 Q 0.42132512721226756 4.929274193261994 0.39345112556709383 4.883415278836499 Q 0.3655771239219199 4.837556364411005 0.31646711369259606 4.806698514594861 Q 0.2656636548346748 4.774776600991952 0.21129672825664358 4.770141162020403 Q 0.15692980167861237 4.765505723048853 0.10510645736658136 4.783136406084875 Q 0.05328311305455036 4.800767089120898 0.009421022890789499 4.835800887751165 Q -0.03444106727297136 4.870834686381432 -0.0637028214089701 4.91740452366786 M 0.8037930826936646 5.762308287168789 Q 0.7243677197088191 5.734965797985733 0.6792915723560885 5.687720259150464 Q 0.634215425003358 5.640474720315195 0.6185051078874005 5.581657750518069 Q 0.602794790771443 5.5228407807209425 0.6089712929315678 5.457280878180853 Q 0.6151477950916924 5.391720975640765 0.6372821910970233 5.327424253224461 L 0.7538132759486187 4.988920920503333 L 0.8190555384004561 5.0113808223322724 L 0.7025244535488608 5.3498841550534 Q 0.6846216332504313 5.401888857007763 0.6782435350078571 5.455745795862549 Q 0.6718654367652828 5.509602734717333 0.6827782330976355 5.55777856762356 Q 0.6936910294299884 5.605954400529785 0.7273198983150877 5.643442387639109 Q 0.7609487672001869 5.680930374748432 0.8233544095454226 5.702413759106547 Q 0.8876511319617262 5.724548155111878 0.9380280620449828 5.714921893356312 Q 0.9884049921282393 5.7052956316007455 1.026187507625881 5.673883348610322 Q 1.063970023123523 5.642471065619898 1.0914600192538053 5.5964107778140555 Q 1.1189500153840881 5.5503504900082135 1.1365273298589096 5.499291328089384 L 1.2530584147105048 5.160787995368256 L 1.3192462171978763 5.183573403020803 L 1.202715132346281 5.522076735741931 Q 1.1796042188701266 5.589210078264836 1.1433176997670769 5.645462087396813 Q 1.1070311806640274 5.701714096528789 1.0575147240457923 5.7364901015318726 Q 1.0079982674275572 5.771266106534955 0.9446628165174997 5.780132935619792 Q 0.8813273656074424 5.78899976470463 0.8037930826936646 5.762308287168789 M 1.4132641091082123 5.922228781610968 L 1.4960210438309007 5.217068310685872 L 1.793976172390801 5.252036029582782 Q 1.8396626254366524 5.257397746480309 1.8751889861907687 5.280697482349377 Q 1.910715346944885 5.303997218218447 1.9352329146109102 5.339597623774309 Q 1.9597504822769354 5.375198029330171 1.9705407475977703 5.4162354534002315 Q 1.9813310129186052 5.4572728774702925 1.9765520913360275 5.497993411706812 Q 1.9706075791235527 5.548645783561995 1.9459953379326227 5.591066151117681 Q 1.9213830967416925 5.633486518673367 1.8825117422427569 5.660137368555089 Q 1.8436403877438212 5.686788218436811 1.7948019765443401 5.691125221031968 L 1.935678767849904 5.983538848743552 L 1.8572172506624636 5.9743306827673655 L 1.7218940369340878 5.694651173639106 L 1.5133254469421575 5.670173770411268 L 1.4827869724388556 5.930387916020248 L 1.4132641091082123 5.922228781610968 M 1.5205521088475191 5.608596377175556 L 1.7509707416005087 5.6356380797891665 Q 1.7926844595988947 5.640533560434734 1.826154014665514 5.621303664864489 Q 1.8596235697321335 5.602073769294244 1.8808786585459751 5.566810882295082 Q 1.9021337473598168 5.531547995295919 1.907029228005384 5.489834277297533 Q 1.9120412677139413 5.44712737553728 1.896928590156672 5.40860326650086 Q 1.8818159125994025 5.37007915746444 1.852160019256015 5.343944353275282 Q 1.8225041259126273 5.317809549086125 1.782776775437974 5.313147186566536 L 1.5583172452561826 5.2868048383308635 L 1.5205521088475191 5.608596377175556 M 2.538381799067803 5.962752480987503 L 2.4236848841734413 5.2620780789192425 L 2.7197444906811574 5.21361459375261 Q 2.7651402970123407 5.20618352602706 2.8057105345638713 5.218795259651443 Q 2.846280772115402 5.231406993275824 2.879656645626687 5.258876086223331 Q 2.9130325191379716 5.286345179170836 2.9347099576878097 5.322822413960743 Q 2.9563873962376483 5.35929964875065 2.9630107392104215 5.399761128306704 Q 2.971249531688749 5.450091261413016 2.959275180040742 5.497650328925005 Q 2.947300828392735 5.545209396436993 2.9172750017565408 5.581537068187508 Q 2.8872491751203464 5.617864739938024 2.841495087584666 5.635487551114942 L 3.0574729758113315 5.877779836995343 L 2.9795106127642996 5.890541888089222 L 2.7723793214294794 5.658961171815242 L 2.565137596874078 5.692885611431884 L 2.6074623739196032 5.951444334448623 L 2.538381799067803 5.962752480987503 M 2.555121809939641 5.631699959420289 L 2.784074572305608 5.594221530891428 Q 2.8255229172166882 5.5874366429680995 2.8524002093597107 5.559730846335289 Q 2.8792775015027328 5.532025049702479 2.889996276892341 5.492271334729572 Q 2.9007150522819494 5.452517619756665 2.893930164358621 5.411069274845585 Q 2.886983731484737 5.368634064579479 2.8618434663664623 5.335763605656871 Q 2.836703201248187 5.302893146734263 2.800995315822354 5.2859388871392365 Q 2.7652874303965205 5.268984627544209 2.7258128161954915 5.275446425566427 L 2.502781245959679 5.311955584391956 L 2.555121809939641 5.631699959420289 M 3.747861629180337 5.576744039384455 L 3.7693784985208763 5.634890615670443 L 3.3220250003206178 5.800431691080721 L 3.0756221417434744 5.134559607805703 L 3.514535007902219 4.9721419489126 L 3.536051877242758 5.030288525198587 L 3.162788371406903 5.168412944513662 L 3.2516322190065488 5.408502033694513 L 3.577065476607156 5.288076974643431 L 3.597541207108637 5.3434100069155805 L 3.2721079495080296 5.463835065966663 L 3.3661574913029675 5.717991875216705 L 3.747861629180337 5.576744039384455 M 4.071687333645466 4.805228393423162 Q 4.050083701998311 4.7983521226566745 4.025989129648972 4.797047675148169 Q 4.001894557299632 4.795743227639665 3.975309044248108 4.800010603389143 Q 3.948723531196584 4.804277979138622 3.9211908234640007 4.813775347453694 Q 3.893658115731417 4.823272715768766 3.8662059085570912 4.8397158395978295 Q 3.786422931456706 4.887503668226041 3.7673466778269726 4.940310832015191 Q 3.748270424197239 4.993117995804341 3.7796151289963893 5.0454487657304 Q 3.801196729022034 5.081479787646703 3.831115642114883 5.091535066824455 Q 3.8610345552077328 5.101590346002206 3.906489054367304 5.091849272850211 Q 3.9519435535268754 5.082108199698215 4.0185010556868495 5.060892665148621 Q 4.091921609640405 5.03556634964176 4.150409738353758 5.026178122992908 Q 4.208897867067112 5.016789896344056 4.2539035970302255 5.033545023036724 Q 4.298909326993338 5.050300149729392 4.331795574651463 5.1052045640780435 Q 4.356974108014715 5.14724075631373 4.359172874312654 5.187887594158353 Q 4.361371640610593 5.228534432002975 4.344536013359669 5.266594406452099 Q 4.327700386108744 5.304654380901222 4.293289204447522 5.338670855978431 Q 4.258878022786299 5.37268733105564 4.210836660231229 5.4014627977564995 Q 4.163653179150356 5.429724416837701 4.114420917077304 5.445808084677166 Q 4.065188655004251 5.461891752516632 4.0150224172230455 5.465712562231802 Q 3.9648561794418398 5.469533371946974 3.913414135260093 5.459547577516724 L 3.9141506725364943 5.392663666799419 Q 3.9407273729394148 5.400058191509867 3.9724535653496718 5.401454155387384 Q 4.004179757759929 5.402850119264901 4.039254772346569 5.398160412264778 Q 4.074329786933209 5.3934707052646536 4.110354199363059 5.3806355305839535 Q 4.146378611792908 5.367800355903254 4.180693870760816 5.347246451116926 Q 4.2536137960676195 5.303569403445979 4.2784338898826055 5.252567315812086 Q 4.303253983697592 5.201565228178193 4.271909278898441 5.149234458252134 Q 4.249299983633481 5.111487673387436 4.215093866331793 5.101086157192993 Q 4.180887749030107 5.090684640998552 4.130974028734428 5.100765341680785 Q 4.08106030843875 5.1108460423630175 4.0127870433303805 5.133089272151929 Q 3.940568404705562 5.156530010945275 3.8860256495086576 5.164720728589692 Q 3.831482894311753 5.172911446234108 3.791879173841504 5.156417649675572 Q 3.7522754533712552 5.139923853117036 3.7229861390507377 5.091024609087768 Q 3.6890721961532966 5.03440443179072 3.693573277370273 4.978670777075833 Q 3.69807435858725 4.922937122360947 3.7348981835545505 4.873487593396784 Q 3.7717220085218512 4.824038064432621 3.83520523761248 4.786013340577914 Q 3.8755256668997715 4.761862502453979 3.915151418991531 4.749201547862699 Q 3.9547771710832906 4.73654059327142 3.9936233390969584 4.7342547169287705 Q 4.032469507110626 4.731968840586122 4.072079837067328 4.739716211799713 L 4.071687333645466 4.805228393423162 M 4.640983961453263 5.1023264379367355 L 4.1688474614995155 4.57205563409079 L 4.388424385908963 4.376551224250788 Q 4.422779959115884 4.345962098901672 4.464168718900659 4.334550676401466 Q 4.505557478685433 4.323139253901259 4.548081448764565 4.328792745628426 Q 4.590605418843696 4.334446237355593 4.6288219323784965 4.353307522922712 Q 4.667038445913296 4.372168808489832 4.694302666333161 4.402790080261218 Q 4.7328715635124805 4.446107976913421 4.748073146962546 4.501528296838614 Q 4.763274730412611 4.5569486167638065 4.750198548752902 4.611437271300345 Q 4.737122367093193 4.665925925836884 4.690817029292561 4.707154746959606 L 4.519039163257959 4.860100373705186 L 4.6932641815507505 5.055777768927211 L 4.640983961453263 5.1023264379367355 M 4.477810342135237 4.813795035904554 L 4.647347627308519 4.662844352116525 Q 4.6787157593670115 4.63491515071081 4.686573865592769 4.597122953545989 Q 4.694431971818527 4.5593307563811685 4.682524300222883 4.520392248998755 Q 4.670616628627238 4.481453741616341 4.642022446235673 4.4493387492707415 Q 4.612763282858258 4.416476896638035 4.573221780639655 4.402142685732084 Q 4.533680278421054 4.387808474826134 4.495110227894294 4.39336286069347 Q 4.456540177367535 4.398917246560806 4.427412626170364 4.42485150500897 L 4.262356502719725 4.571812302881897 L 4.477810342135237 4.813795035904554 M 5.3792320356781 4.333466819183394 Q 5.334811750053238 4.393897260394804 5.274511074593787 4.425279238330141 Q 5.214210399134336 4.456661216265477 5.146654928602582 4.461611812313767 Q 5.079099458070828 4.466562408362057 5.012914787229059 4.4476987039123275 Q 4.9467301163872905 4.428834999462598 4.891939849688945 4.388560607162725 Q 4.834732365342143 4.346509403437856 4.797568947775283 4.288164477396672 Q 4.760405530208423 4.229819551355488 4.746664006405156 4.163248758033159 Q 4.7329224826018885 4.09667796471083 4.745281674700287 4.030055893513104 Q 4.7576408667986865 3.9634338223153778 4.799692070523554 3.906226337968576 Q 4.844112356148416 3.8457958967571653 4.905218770824019 3.815006189296827 Q 4.966325185499622 3.7842164818364887 5.033987390401953 3.7799648906337744 Q 5.101649595304284 3.77571329943106 5.167431396537976 3.79428086864329 Q 5.233213197771669 3.8128484378555196 5.287197725253863 3.8525305596803956 Q 5.344405209600665 3.894581763405264 5.381568627167525 3.952926689446448 Q 5.4187320447343845 4.011271615487632 5.432769703775151 4.077439539201885 Q 5.4468073628159175 4.143607462916138 5.4340453011094425 4.209933398876365 Q 5.4212832394029675 4.276259334836592 5.3792320356781 4.333466819183394 M 4.9333987829388155 4.332158862032075 Q 4.980131657475639 4.366510549581967 5.0344918445647435 4.382887974887478 Q 5.088852031653849 4.399265400192987 5.143019675749097 4.395643752340085 Q 5.197187319844346 4.392022104487183 5.245653048677484 4.367454379141259 Q 5.294118777510621 4.342886653795335 5.328470465060514 4.2961537792585105 Q 5.364598964035402 4.24700368707323 5.372777732060932 4.192822437977398 Q 5.380956500086462 4.138641188881566 5.367145914787432 4.085671690736897 Q 5.353335329488402 4.032702192592226 5.321292019582305 3.986808551526586 Q 5.289248709676208 3.9409149104609456 5.24493305278784 3.9083400343360477 Q 5.1982001782510165 3.873988346786155 5.144242860769988 3.857907056718144 Q 5.090285543288959 3.8418257666501328 5.035418894348135 3.8455541488736116 Q 4.980552245407311 3.8492825310970904 4.932785521419749 3.873743522072438 Q 4.885018797432187 3.8982045130477854 4.850667109882294 3.944937387584609 Q 4.815130881382405 3.993281740553738 4.806549243748798 4.047166854412071 Q 4.797967606115192 4.101051968270403 4.811778191414222 4.154021466415074 Q 4.825588776713252 4.206990964559743 4.85733595138185 4.25328747523346 Q 4.889083126050448 4.2995839859071765 4.9333987829388155 4.332158862032075 M 5.2149788264767345 3.499141766457169 L 5.749691091383702 3.726394475479662 L 5.7223112469231605 3.7908176399262845 L 5.068876293250275 3.5131077889693656 L 5.091562450089009 3.4597285955707355 L 5.818669891103477 3.262409642549512 L 5.27475431698985 3.031245527175513 L 5.302134161450391 2.966822362728891 L 5.954648784202611 3.2441410730506592 L 5.929224642917823 3.3039625828939516 L 5.2149788264767345 3.499141766457169 M 5.55820462712472 2.399568256047468 Q 5.538660218078995 2.411058080896148 5.521600074746274 2.428122708330319 Q 5.504539931413555 2.4451873357644893 5.48996405379384 2.46782676578415 Q 5.475388176174125 2.49046619580381 5.4640729452657455 2.5173030277608435 Q 5.452757714357365 2.5441398597178773 5.446666563337393 2.5755547905510316 Q 5.4289641556855965 2.666854433284887 5.455534936160852 2.7163164755489886 Q 5.482105716636107 2.7657785178130907 5.541990428536808 2.777389774444914 Q 5.583222525255323 2.7853844101586285 5.610685867002359 2.7698275833586186 Q 5.638149208749395 2.7542707565586086 5.6612502902299 2.7139304537036333 Q 5.684351371710403 2.673590150848658 5.713002533044422 2.609878998338191 Q 5.7431764821334355 2.5383141131194353 5.775243412896808 2.4885073670761826 Q 5.80731034366018 2.4387006210329294 5.849835169811508 2.416387190978378 Q 5.892359995962835 2.394073760923826 5.9551898576291435 2.406256062963772 Q 6.0032939704674115 2.415583137963105 6.035019146736602 2.4410882980427604 Q 6.066744323005792 2.466593458122415 6.083833673171936 2.5045401853976217 Q 6.100923023338082 2.5424869126728282 6.103266386045661 2.5908165997318267 Q 6.105609748753241 2.639146286790825 6.094950234468288 2.6941224157488453 Q 6.0844810686527095 2.74811682811833 6.06357873018115 2.795504508441599 Q 6.04267639170959 2.842892188764868 6.0120220873456915 2.8827865946880733 Q 5.981367782981793 2.9226810006112784 5.939584112077439 2.9543057511360904 L 5.890288462958978 2.9090958077830007 Q 5.913539415647808 2.8942501619882983 5.935763690385604 2.87156577060614 Q 5.957987965123401 2.8488813792239815 5.977918322617565 2.819640468667797 Q 5.997848680111731 2.7903995581116128 6.0123496221272825 2.7550127995618157 Q 6.026850564142833 2.719626041012019 6.0344645029178 2.6803573774705756 Q 6.050644122814602 2.596911467445009 6.029252460865256 2.5443791269389466 Q 6.00786079891591 2.491846786432884 5.947976087015209 2.4802355298010608 Q 5.904780557119621 2.4718601971485983 5.874196704258436 2.490377160835049 Q 5.84361285139725 2.5088941245215 5.817786942862178 2.552780596791871 Q 5.791961034327104 2.596667069062242 5.762929176054337 2.6623416547497816 Q 5.732154207315537 2.7317527583220906 5.701830387018197 2.7778229864805737 Q 5.671506566720858 2.8238932146390563 5.632783458447322 2.8423599654533183 Q 5.594060350173786 2.86082671626758 5.538102504627229 2.8499768535132532 Q 5.4733092097838485 2.8374138545345593 5.434827430260117 2.7968472100506125 Q 5.396345650736385 2.7562805655666662 5.384125173660114 2.695849530989817 Q 5.371904696583843 2.635418496412968 5.38599048331753 2.562771468861298 Q 5.394936861378115 2.5166307892001023 5.411972281978861 2.4786795778234456 Q 5.429007702579607 2.440728366446789 5.453245623366665 2.410285416591029 Q 5.477483544153722 2.3798424667352687 5.509700346125421 2.3555303777522885 L 5.55820462712472 2.399568256047468 M 6.151004417800369 2.214183408530111 L 5.442279992161719 2.171642974785657 L 5.446474119432299 2.1017687356381844 L 6.155198545070949 2.1443091693826384 L 6.151004417800369 2.214183408530111 M 5.941556662591742 1.3379943001976633 Q 5.9943850812193125 1.3337330579714897 6.037921551278763 1.3573090155291918 Q 6.0814580213382134 1.380884973086894 6.108540179055927 1.4243482533744296 Q 6.135622336773641 1.4678115336619655 6.139963979796534 1.5216367149051508 L 6.16689824669782 1.8555521911360233 L 5.459196789611493 1.9126367568074045 L 5.431699717133166 1.5717439422672304 Q 5.427679677297153 1.5219058114865032 5.451159257530649 1.4833933549034855 Q 5.474638837764146 1.4448808983204677 5.514436670776104 1.4221073942520936 Q 5.554234503788063 1.3993338901837193 5.599088821490717 1.395715854331308 Q 5.651917240118288 1.3914546121051343 5.698942379332389 1.4147491668743157 Q 5.7459675185464905 1.438043721643497 5.771755534332583 1.4841195096651494 Q 5.784792812813709 1.4218697757716976 5.830779952695253 1.3825450638780887 Q 5.876767092576797 1.3432203519844799 5.941556662591742 1.3379943001976633 M 5.935223566974785 1.4087324928513245 Q 5.899340112812662 1.4116269215332538 5.870225265783942 1.4300273476830543 Q 5.841110418755223 1.4484277738328546 5.824382950968353 1.4773663608999394 Q 5.807655483181484 1.5063049479670243 5.810469511066692 1.5411916395135332 L 5.832338527774603 1.8123110709606896 L 6.100467671374915 1.7906832566429407 L 6.079161460244047 1.5265411635050865 Q 6.076267031562118 1.490657709342963 6.054996918760554 1.463279208627826 Q 6.033726805958991 1.435900707912689 6.0019185322401425 1.4209095864394024 Q 5.970110258521294 1.4059184649661156 5.935223566974785 1.4087324928513245 M 5.514371253393563 1.8379589251144508 L 5.775523058684573 1.816893916373744 L 5.755905264284831 1.5736838381637952 Q 5.753091236399622 1.538797146617286 5.732480306499306 1.5133719707350182 Q 5.71186937659899 1.48794679485275 5.680680085383029 1.474410616904525 Q 5.649490794167069 1.4608744389563 5.615600865236175 1.4636080660447888 Q 5.579717411074051 1.466502494726718 5.551518925864226 1.4838257574641835 Q 5.523320440654401 1.5011490202016493 5.5074691342880655 1.5285120625485922 Q 5.49161782792173 1.5558751048955348 5.494271054213499 1.5887682712108147 L 5.514371253393563 1.8379589251144508 M 6.069827595411635 1.0859541227429563 L 5.377084391512208 1.241539640870955 L 5.361744974231984 1.1732410151343917 L 6.054488178131409 1.0176554970063931 L 6.069827595411635 1.0859541227429563 M 5.98617630027435 0.7463078088685571 L 5.31895080293413 0.9890219116707961 L 5.295021243502923 0.9232391161583801 L 5.903981979103575 0.7017197659952098 L 5.763823131006507 0.3164205351367728 L 5.822087892746076 0.29522578249770404 L 5.98617630027435 0.7463078088685571 M 5.725719263022603 0.11386903625938917 L 5.094921282325142 0.4397431032668845 L 5.0627928531835575 0.3775517530572756 L 5.693590833881019 0.05167768604978032 L 5.725719263022603 0.11386903625938917 M 4.738051373033646 -0.23922735750118101 L 4.882750097891121 -0.03169114614369073 L 5.414305295360108 -0.4023028999288428 L 5.454340515676405 -0.3448818137825016 L 4.922785318207418 0.02572994000265047 L 5.067484043064892 0.23326615136014078 L 5.016625366763847 0.2687259179260041 L 4.687192696732601 -0.2037675909353177 L 4.738051373033646 -0.23922735750118101 M 4.6038133600206 -0.29349281467080746 L 4.702887153025451 -0.7293051407236992 L 4.269047765992189 -0.6176656035578534 L 4.214450802159229 -0.6705349854364274 L 4.722265399158018 -0.7996292729744823 L 4.905916936209906 -0.9892818841837108 L 4.956203613424475 -0.9405864008744977 L 4.771160776849466 -0.7494970274591388 L 4.659128704956625 -0.23992778303067325 L 4.6038133600206 -0.29349281467080746" fill="#faecd3" fill-rule="nonzero"></path></g><g clip-path="url(#SvgjsClipPath1002)"><g clip-path="url(#SvgjsClipPath10005658b101-02eb-4d8f-b78e-12d1253ada9b)"><path d=" M 4.0668679902035585 1.8071155882551642 L 2.7189093820253847 1.8071155882551642 C 2.7749190692933086 1.6233422362200893 2.796215277725835 1.430745378537784 2.781708879300466 1.2391747795650205 L 3.739143837756991 1.2391747795650205 L 3.588493677627085 0.9787112908666394 L 2.7250863817573645 0.9787112908666394 C 2.5435636044522996 0.395883064858303 2.0036978791265394 -0.000843822188609144 1.3932566062126936 0 C 1.023559952757596 0 0.6690051117337463 0.14686142375710903 0.40759010109367816 0.4082764343971923 C 0.14617509045358584 0.6696914450372726 -0.0006863333035292215 1.0242462860611192 -0.0006863333035292215 1.3939429395162288 C -0.0014019592294973804 1.62938820422562 0.057634519991698385 1.8611654216480362 0.1708969925847777 2.0675790769536175 L 1.5188556007629037 2.0675790769536175 C 1.462822274363962 2.2513475629548654 1.4415255738866692 2.443948870549903 1.4560561034877986 2.635519885643683 L 0.4989643116830979 2.635519885643683 L 0.6492713051612036 2.895983374342064 L 1.5119922677273705 2.895983374342064 C 1.6937325327991113 3.478608044725738 2.23351030118219 3.8751312134090923 2.8438220432720414 3.87435149855693 C 3.2135466029721016 3.8744425525100175 3.568154350574911 3.7276103688701867 3.829589101838234 3.4661756176068694 C 4.091023853101533 3.2047408663435553 4.237856036741395 2.850133118740758 4.237764982788288 2.480408559040701 C 4.2386932266934725 2.2450459552184783 4.1796415774780895 2.0133272836973615 4.06618165690003 1.8071155882551702 Z M 1.61974659638517 1.8071155882551642 L 0.3369896520445375 1.8071155882551642 C 0.287688867807754 1.6753543732623903 0.2617906775108677 1.5359919142657903 0.260463488698366 1.3953156061233385 C 0.26019269565703307 0.92856608657778 0.5463170493338864 0.5094620332872942 0.981113457429043 0.33973498525877793 C 1.415235262887732 0.5100128879175644 1.7005945136903955 0.9289938213156588 1.700047592900885 1.3953156061233385 C 1.6966185598250103 1.5359636383781117 1.6700688220049498 1.6750889020639472 1.6214624296440774 1.8071155882551642 Z M 2.52742239033408 1.3953156061233385 C 2.52742239033408 1.7827507559790332 2.2813719010103095 2.074099243337296 2.2813719010103095 2.4817812256478047 C 2.289591010397251 2.9374266839135372 2.504180963738506 3.364713149831307 2.864755209030442 3.6434003419113448 C 2.2343580697169307 3.5119675142809252 1.714117425623704 3.2250801933957534 1.714117425623704 2.4817812256478047 C 1.714117425623704 2.0943460757921097 1.9598247482956974 1.8029975884338443 1.9598247482956974 1.3953156061233385 C 1.95160563890878 0.9396701478576057 1.7370156855675007 0.512383681939833 1.376441440275589 0.23369648985979538 C 2.006838579589076 0.36512931749021477 2.52742239033408 0.6520166383753867 2.52742239033408 1.3953156061233385 Z M 2.5418353897086754 2.4817812256478047 C 2.5453943593271733 2.3411471107670994 2.571940090948198 2.2020428402639114 2.620420552965483 2.069981243515973 L 3.9035206639578917 2.069981243515973 C 3.952589176638816 2.2017952969487125 3.978367339314368 2.341136716816615 3.979703660652287 2.4817812256477985 C 3.9799744536935955 2.9485307451933602 3.6938501000167663 3.367634798483846 3.25905369192161 3.537361846512362 C 2.825138848453497 3.366351498679575 2.5404458974004793 2.9468039918645483 2.5418353897087234 2.480408559040701 Z" fill="#d9fae8" transform="matrix(1,0,0,1,0,0)" fill-rule="evenodd"></path></g></g></g><defs><clipPath id="SvgjsClipPath1002"><path d=" M 0 0 h 4.240167149350701 v 3.8743514985569285 h -4.240167149350701 Z"></path></clipPath><clipPath id="SvgjsClipPath10005658b101-02eb-4d8f-b78e-12d1253ada9b"><path d=" M 0 0 L 4.240167149350701 0 L 4.240167149350701 3.8743514985569285 L 0 3.8743514985569285 Z"></path></clipPath></defs></svg>